<svg height="512" viewBox="0 0 64 64" width="512" xmlns="http://www.w3.org/2000/svg" xmlns:xlink="http://www.w3.org/1999/xlink"><linearGradient id="New_Gradient_Swatch" gradientUnits="userSpaceOnUse" x1="11" x2="11" y1="63.123" y2=".048"><stop offset="0" stop-color="#e93e3a"/><stop offset=".35" stop-color="#ed683c"/><stop offset=".7" stop-color="#f3903f"/><stop offset="1" stop-color="#fdc70c"/></linearGradient><linearGradient id="New_Gradient_Swatch-2" x1="42" x2="42" xlink:href="#New_Gradient_Swatch" y1="63.123" y2=".048"/><linearGradient id="New_Gradient_Swatch-3" x1="41.5" x2="41.5" xlink:href="#New_Gradient_Swatch" y1="63.123" y2=".048"/><linearGradient id="New_Gradient_Swatch-4" x1="28.5" x2="28.5" xlink:href="#New_Gradient_Swatch" y1="63.123" y2=".048"/><linearGradient id="New_Gradient_Swatch-5" x1="55.5" x2="55.5" xlink:href="#New_Gradient_Swatch" y1="63.123" y2=".048"/><linearGradient id="New_Gradient_Swatch-8" x1="52" x2="52" xlink:href="#New_Gradient_Swatch" y1="63.123" y2=".048"/><linearGradient id="New_Gradient_Swatch-9" x1="32" x2="32" xlink:href="#New_Gradient_Swatch" y1="63.123" y2=".048"/><path d="m14 17.071v-1.1a4.977 4.977 0 0 0 2-3.971v-1a1 1 0 0 0 1-1v-2a6 6 0 0 0 -12 0v2a1 1 0 0 0 1 1v1a4.977 4.977 0 0 0 2 3.974v1.1a7.011 7.011 0 0 0 -6 6.926v11a1 1 0 0 0 1 1h2v20a3 3 0 0 0 -3 3v2a1 1 0 0 0 1 1h6a1 1 0 0 0 .447-.1l1.553-.782 1.553.777a1 1 0 0 0 .447.105h6a1 1 0 0 0 1-1v-2a3 3 0 0 0 -3-3v-20h2a1 1 0 0 0 1-1v-11a7.011 7.011 0 0 0 -6-6.929zm-7-9.071a4 4 0 0 1 8 0v1h-.171a1 1 0 0 1 -.708-.293l-1.414-1.414a1 1 0 0 0 -1.414 0l-.829.829a3.02 3.02 0 0 1 -2.121.878h-1.343zm1.343 3a4.966 4.966 0 0 0 3.535-1.464l.122-.122.707.707a2.96 2.96 0 0 0 1.293.749v1.13a3 3 0 0 1 -6 0v-1zm2.657 6a5 5 0 0 0 1-.1v.687l-1 1-1-1v-.687a5 5 0 0 0 1 .1zm-2.236 43h-4.764v-1a1 1 0 0 1 1-1h5v1.382zm9.236-1v1h-4.764l-1.236-.618v-1.382h5a1 1 0 0 1 1 1zm-3-3h-3v-16h-2v16h-3v-20h8zm3-22h-1v-11h-2v11h-8v-11h-2v11h-1v-10a4.991 4.991 0 0 1 4.624-4.962l1.376 1.376v9.586h2v-9.586l1.376-1.376a4.991 4.991 0 0 1 4.624 4.962z" fill="url(#New_Gradient_Swatch)"/><path d="m42 38a7 7 0 1 0 7 7 7.008 7.008 0 0 0 -7-7zm0 12a5 5 0 1 1 5-5 5.006 5.006 0 0 1 -5 5z" fill="url(#New_Gradient_Swatch-2)"/><path d="m59 26h-9.748a15 15 0 1 0 -26.129.678 2.985 2.985 0 0 0 -1.123 2.322v24a3 3 0 0 0 3 3h34a3 3 0 0 0 3-3v-24a3 3 0 0 0 -3-3zm1 3v1.184a2.966 2.966 0 0 0 -1-.184h-34a2.966 2.966 0 0 0 -1 .184v-1.184a1 1 0 0 1 1-1h34a1 1 0 0 1 1 1zm-16.026-11a26.092 26.092 0 0 0 -.829-5.822 15.111 15.111 0 0 0 2.583-1.778 12.824 12.824 0 0 1 3.223 7.6zm-6.974-11.79c1.411.566 2.777 2.3 3.725 4.885a13.053 13.053 0 0 1 -3.725.845zm-2 5.73a13.023 13.023 0 0 1 -3.725-.845c.948-2.587 2.313-4.319 3.725-4.885zm-4.307 1.076a14.856 14.856 0 0 0 4.307.93v4.054h-4.975a24.349 24.349 0 0 1 .668-4.984zm4.307 6.984v4.06a15.08 15.08 0 0 0 -4.288.919 24.861 24.861 0 0 1 -.678-4.979zm6.288 4.979a15.065 15.065 0 0 0 -4.288-.919v-4.06h4.966a24.861 24.861 0 0 1 -.678 4.979zm-4.288-6.979v-4.054a14.845 14.845 0 0 0 4.307-.931 24.369 24.369 0 0 1 .668 4.985zm5.527-7.757a14.332 14.332 0 0 0 -1.746-3.327 12.978 12.978 0 0 1 3.511 2.091 13.26 13.26 0 0 1 -1.765 1.236zm-13.054 0a13.042 13.042 0 0 1 -1.765-1.236 13 13 0 0 1 3.511-2.09 14.324 14.324 0 0 0 -1.746 3.325zm-.618 1.936a26.092 26.092 0 0 0 -.829 5.821h-4.977a12.824 12.824 0 0 1 3.223-7.6 15.146 15.146 0 0 0 2.583 1.778zm-.82 7.821a26.567 26.567 0 0 0 .827 5.806c-.114.063-.222.129-.332.194h-3.463a12.788 12.788 0 0 1 -2.029-6zm15.435 6c-.11-.065-.218-.131-.332-.194a26.619 26.619 0 0 0 .827-5.806h5a12.863 12.863 0 0 1 -2.026 6zm16.53 27a1 1 0 0 1 -1 1h-34a1 1 0 0 1 -1-1v-16a1 1 0 0 1 1-1h34a1 1 0 0 1 1 1zm0-18.816a2.966 2.966 0 0 0 -1-.184h-34a2.966 2.966 0 0 0 -1 .184v-1.184a1 1 0 0 1 1-1h34a1 1 0 0 1 1 1z" fill="url(#New_Gradient_Swatch-3)"/><path d="m28 40h3v-2h-4a1 1 0 0 0 -1 1v4h2z" fill="url(#New_Gradient_Swatch-4)"/><path d="m57 38h-4v2h3v3h2v-4a1 1 0 0 0 -1-1z" fill="url(#New_Gradient_Swatch-5)"/><path d="m28 47h-2v4a1 1 0 0 0 1 1h4v-2h-3z" fill="url(#New_Gradient_Swatch-4)"/><path d="m56 50h-3v2h4a1 1 0 0 0 1-1v-4h-2z" fill="url(#New_Gradient_Swatch-5)"/><path d="m51 44h2v2h-2z" fill="url(#New_Gradient_Swatch-8)"/><path d="m31 44h2v2h-2z" fill="url(#New_Gradient_Swatch-9)"/></svg>