<svg height="512" viewBox="0 0 64 64" width="512" xmlns="http://www.w3.org/2000/svg" xmlns:xlink="http://www.w3.org/1999/xlink"><linearGradient id="New_Gradient_Swatch" gradientUnits="userSpaceOnUse" x1="49" x2="49" y1="64.278" y2=".126"><stop offset="0" stop-color="#e93e3a"/><stop offset=".35" stop-color="#ed683c"/><stop offset=".7" stop-color="#f3903f"/><stop offset="1" stop-color="#fdc70c"/></linearGradient><linearGradient id="New_Gradient_Swatch-2" x1="32" x2="32" xlink:href="#New_Gradient_Swatch" y1="64.278" y2=".126"/><linearGradient id="New_Gradient_Swatch-3" x1="28.5" x2="28.5" xlink:href="#New_Gradient_Swatch" y1="64.278" y2=".126"/><linearGradient id="New_Gradient_Swatch-4" x1="55.5" x2="55.5" xlink:href="#New_Gradient_Swatch" y1="64.278" y2=".126"/><linearGradient id="New_Gradient_Swatch-5" x1="34.5" x2="34.5" xlink:href="#New_Gradient_Swatch" y1="64.278" y2=".126"/><linearGradient id="New_Gradient_Swatch-6" x1="27.5" x2="27.5" xlink:href="#New_Gradient_Swatch" y1="64.278" y2=".126"/><linearGradient id="New_Gradient_Swatch-7" x1="51.5" x2="51.5" xlink:href="#New_Gradient_Swatch" y1="64.278" y2=".126"/><linearGradient id="New_Gradient_Swatch-8" x1="43.5" x2="43.5" xlink:href="#New_Gradient_Swatch" y1="64.278" y2=".126"/><path d="m47 39a2.981 2.981 0 0 0 2-.78 3 3 0 1 0 0-4.44 3 3 0 1 0 -2 5.22zm4-4a1 1 0 1 1 -1 1 1 1 0 0 1 1-1zm-4 0a1 1 0 1 1 -1 1 1 1 0 0 1 1-1z" fill="url(#New_Gradient_Swatch)"/><path d="m59 18h-34a3 3 0 0 0 -3 3v5h-7a1 1 0 0 0 -.707.293l-4.293 4.293v-.586a1 1 0 0 0 -1-1h-6a1 1 0 0 0 -1 1v18a1 1 0 0 0 1 1h6a1 1 0 0 0 1-1h13a1 1 0 0 0 .5-.134l2.5-1.444v2.578a2 2 0 0 0 2 2h28a2 2 0 0 0 2-2v-5h1a3 3 0 0 0 3-3v-20a3 3 0 0 0 -3-3zm-34 2h34a1 1 0 0 1 1 1v1.184a2.966 2.966 0 0 0 -1-.184h-34a2.966 2.966 0 0 0 -1 .184v-1.184a1 1 0 0 1 1-1zm-21 27v-16h4v16zm18.732-1h-12.732v-12.586l5.414-5.414h6.586v9.76a1 1 0 0 0 1.5.865l8.116-4.687a3.041 3.041 0 0 1 1.5-.4 3 3 0 0 1 2.9 3.781 2.974 2.974 0 0 1 -1.4 1.813zm33.268-15v10h-20.612l.229-.132a4.995 4.995 0 0 0 1.84-6.826 5.019 5.019 0 0 0 -6.837-1.842l-2.62 1.517v-2.717zm-16.989-2a4.967 4.967 0 0 1 5.978 0zm-7.086 14h24.075v2h-27.538zm-3.925 6v-2h28v2zm32-8a1 1 0 0 1 -1 1h-1v-11a2 2 0 0 0 -2-2h-8.277a6.959 6.959 0 0 0 -11.446 0h-8.277a2 2 0 0 0 -2 2v3.872l-2 1.155v-11.027a1 1 0 0 1 1-1h34a1 1 0 0 1 1 1z" fill="url(#New_Gradient_Swatch-2)"/><path d="m31 28v-2h-4a1 1 0 0 0 -1 1v2h2v-1z" fill="url(#New_Gradient_Swatch-3)"/><path d="m58 27a1 1 0 0 0 -1-1h-4v2h3v1h2z" fill="url(#New_Gradient_Swatch-4)"/><path d="m39.293 8.293 1.414 1.414 3-3a1 1 0 0 0 0-1.414l-3-3-1.414 1.414 1.293 1.293h-15.586v2h15.586z" fill="url(#New_Gradient_Swatch-5)"/><path d="m24.707 52.707-1.414-1.414-3 3a1 1 0 0 0 0 1.414l3 3 1.414-1.414-1.293-1.293h11.586v-2h-11.586z" fill="url(#New_Gradient_Swatch-6)"/><path d="m48.707 55.707-1.414-1.414-3 3a1 1 0 0 0 0 1.414l3 3 1.414-1.414-1.293-1.293h11.586v-2h-11.586z" fill="url(#New_Gradient_Swatch-7)"/><path d="m34 11v2h15.586l-1.293 1.293 1.414 1.414 3-3a1 1 0 0 0 0-1.414l-3-3-1.414 1.414 1.293 1.293z" fill="url(#New_Gradient_Swatch-8)"/></svg>