<svg height="512" viewBox="0 0 64 64" width="512" xmlns="http://www.w3.org/2000/svg" xmlns:xlink="http://www.w3.org/1999/xlink"><linearGradient id="New_Gradient_Swatch" gradientUnits="userSpaceOnUse" x1="32" x2="32" y1="65.283" y2=".439"><stop offset="0" stop-color="#e93e3a"/><stop offset=".35" stop-color="#ed683c"/><stop offset=".7" stop-color="#f3903f"/><stop offset="1" stop-color="#fdc70c"/></linearGradient><linearGradient id="New_Gradient_Swatch-2" x1="11" x2="11" xlink:href="#New_Gradient_Swatch" y1="65.283" y2=".439"/><linearGradient id="New_Gradient_Swatch-3" x1="15" x2="15" xlink:href="#New_Gradient_Swatch" y1="65.283" y2=".439"/><linearGradient id="New_Gradient_Swatch-5" x1="49" x2="49" xlink:href="#New_Gradient_Swatch" y1="65.283" y2=".439"/><linearGradient id="New_Gradient_Swatch-6" x1="53" x2="53" xlink:href="#New_Gradient_Swatch" y1="65.283" y2=".439"/><linearGradient id="New_Gradient_Swatch-7" x1="16" x2="16" xlink:href="#New_Gradient_Swatch" y1="65.283" y2=".439"/><linearGradient id="New_Gradient_Swatch-8" x1="12" x2="12" xlink:href="#New_Gradient_Swatch" y1="65.283" y2=".439"/><linearGradient id="New_Gradient_Swatch-9" x1="20" x2="20" xlink:href="#New_Gradient_Swatch" y1="65.283" y2=".439"/><linearGradient id="New_Gradient_Swatch-10" x1="24" x2="24" xlink:href="#New_Gradient_Swatch" y1="65.283" y2=".439"/><linearGradient id="New_Gradient_Swatch-11" x1="28" x2="28" xlink:href="#New_Gradient_Swatch" y1="65.283" y2=".439"/><linearGradient id="New_Gradient_Swatch-13" x1="36" x2="36" xlink:href="#New_Gradient_Swatch" y1="65.283" y2=".439"/><linearGradient id="New_Gradient_Swatch-14" x1="40" x2="40" xlink:href="#New_Gradient_Swatch" y1="65.283" y2=".439"/><linearGradient id="New_Gradient_Swatch-15" x1="44" x2="44" xlink:href="#New_Gradient_Swatch" y1="65.283" y2=".439"/><linearGradient id="New_Gradient_Swatch-16" x1="48" x2="48" xlink:href="#New_Gradient_Swatch" y1="65.283" y2=".439"/><linearGradient id="New_Gradient_Swatch-17" x1="52" x2="52" xlink:href="#New_Gradient_Swatch" y1="65.283" y2=".439"/><linearGradient id="New_Gradient_Swatch-18" x1="43.5" x2="43.5" xlink:href="#New_Gradient_Swatch" y1="65.283" y2=".439"/><linearGradient id="New_Gradient_Swatch-19" x1="39" x2="39" xlink:href="#New_Gradient_Swatch" y1="65.283" y2=".439"/><linearGradient id="New_Gradient_Swatch-20" x1="59" x2="59" xlink:href="#New_Gradient_Swatch" y1="65.283" y2=".439"/><linearGradient id="New_Gradient_Swatch-21" x1="5" x2="5" xlink:href="#New_Gradient_Swatch" y1="65.283" y2=".439"/><linearGradient id="New_Gradient_Swatch-26" x1="58" x2="58" xlink:href="#New_Gradient_Swatch" y1="65.283" y2=".439"/><linearGradient id="New_Gradient_Swatch-27" x1="6" x2="6" xlink:href="#New_Gradient_Swatch" y1="65.283" y2=".439"/><path d="m61.9 54.553-5.9-11.789v-31.764a3 3 0 0 0 -3-3h-9.368a5.98 5.98 0 0 0 -5.632-4 5.8 5.8 0 0 0 -2.244.452 7.942 7.942 0 0 0 -5.756-2.452 8.038 8.038 0 0 0 -7.738 6h-11.262a3 3 0 0 0 -3 3v31.764l-5.895 11.789a1 1 0 0 0 -.105.447v5a2 2 0 0 0 2 2h56a2 2 0 0 0 2-2v-5a1 1 0 0 0 -.1-.447zm-32.9 1.447h6v1h-6zm-24.382-2 5-10h44.764l5 10zm43.382-40h2v24h-36v-24h2a6.006 6.006 0 0 0 6 6h2v4.586l-1.715 1.714a2.951 2.951 0 0 0 -1.285-.3 3 3 0 1 0 3 3 2.951 2.951 0 0 0 -.3-1.285l2.008-2.008a1 1 0 0 0 .292-.707v-5h5v8.184a3 3 0 1 0 2 0v-8.184h5v5a1 1 0 0 0 .293.707l2.007 2.008a2.951 2.951 0 0 0 -.3 1.285 3 3 0 1 0 3-3 2.951 2.951 0 0 0 -1.285.3l-1.715-1.714v-4.586h2a6.006 6.006 0 0 0 6-6zm-26 15a1 1 0 1 1 -1-1 1 1 0 0 1 1 1zm11 2a1 1 0 1 1 -1-1 1 1 0 0 1 1 1zm10-3a1 1 0 1 1 -1 1 1 1 0 0 1 1-1zm-19.92-18a1 1 0 0 0 .989-.858 5.989 5.989 0 0 1 10.652-2.836 1 1 0 0 0 1.288.249 3.936 3.936 0 0 1 1.991-.555 3.993 3.993 0 0 1 3.925 3.273 1 1 0 0 0 .8.8 4 4 0 0 1 -.725 7.927h-20a4 4 0 0 1 0-8zm-13.08 1a1 1 0 0 1 1-1h6.54a6.009 6.009 0 0 0 -1.19 2h-3.35a1 1 0 0 0 -1 1v26a1 1 0 0 0 1 1h38a1 1 0 0 0 1-1v-26a1 1 0 0 0 -1-1h-3.35a5.982 5.982 0 0 0 -1.207-2h6.557a1 1 0 0 1 1 1v31h-44zm-6 49v-4h23v1a2 2 0 0 0 2 2h6a2 2 0 0 0 2-2v-1h23v4z" fill="url(#New_Gradient_Swatch)"/><path d="m10 50h2v2h-2z" fill="url(#New_Gradient_Swatch-2)"/><path d="m14 50h2v2h-2z" fill="url(#New_Gradient_Swatch-3)"/><path d="m18 50h28v2h-28z" fill="url(#New_Gradient_Swatch)"/><path d="m48 50h2v2h-2z" fill="url(#New_Gradient_Swatch-5)"/><path d="m52 50h2v2h-2z" fill="url(#New_Gradient_Swatch-6)"/><path d="m15 46h2v2h-2z" fill="url(#New_Gradient_Swatch-7)"/><path d="m11 46h2v2h-2z" fill="url(#New_Gradient_Swatch-8)"/><path d="m19 46h2v2h-2z" fill="url(#New_Gradient_Swatch-9)"/><path d="m23 46h2v2h-2z" fill="url(#New_Gradient_Swatch-10)"/><path d="m27 46h2v2h-2z" fill="url(#New_Gradient_Swatch-11)"/><path d="m31 46h2v2h-2z" fill="url(#New_Gradient_Swatch)"/><path d="m35 46h2v2h-2z" fill="url(#New_Gradient_Swatch-13)"/><path d="m39 46h2v2h-2z" fill="url(#New_Gradient_Swatch-14)"/><path d="m43 46h2v2h-2z" fill="url(#New_Gradient_Swatch-15)"/><path d="m47 46h2v2h-2z" fill="url(#New_Gradient_Swatch-16)"/><path d="m51 46h2v2h-2z" fill="url(#New_Gradient_Swatch-17)"/><path d="m45 14h-2a1 1 0 0 1 -1 1v2a3 3 0 0 0 3-3z" fill="url(#New_Gradient_Swatch-18)"/><path d="m38 15h2v2h-2z" fill="url(#New_Gradient_Swatch-19)"/><path d="m58 30h2v2h-2z" fill="url(#New_Gradient_Swatch-20)"/><g fill="url(#New_Gradient_Swatch-21)"><path d="m4 30h2v2h-2z"/><path d="m4 24h2v2h-2z"/><path d="m4 18h2v2h-2z"/></g><path d="m58 24h2v2h-2z" fill="url(#New_Gradient_Swatch-20)"/><path d="m58 18h2v2h-2z" fill="url(#New_Gradient_Swatch-20)"/><path d="m57 5h2v2h-2z" fill="url(#New_Gradient_Swatch-26)"/><path d="m5 5h2v2h-2z" fill="url(#New_Gradient_Swatch-27)"/></svg>