<?xml version="1.0"?>
<svg xmlns="http://www.w3.org/2000/svg" height="512px" viewBox="0 0 64 64" width="512px"><g><g id="Eye_scan" data-name="Eye scan"><path d="m62.784 31.38c-.56-.71-13.926-17.38-30.784-17.38s-30.224 16.67-30.784 17.38a1 1 0 0 0 0 1.24c.56.71 13.926 17.38 30.784 17.38s30.224-16.67 30.784-17.38a1 1 0 0 0 0-1.24zm-30.784 16.62c-14.107 0-26.1-12.983-28.7-16 2.6-3.019 14.577-16 28.7-16 14.107 0 26.1 12.983 28.7 16-2.6 3.019-14.577 16-28.7 16z" data-original="#000000" class="active-path" data-old_color="#000000" fill="#6E6D6D"/><path d="m12 26h-1a1 1 0 0 0 0 2h1a1 1 0 0 0 0-2z" data-original="#000000" class="active-path" data-old_color="#000000" fill="#6E6D6D"/><path d="m51 32h-4a14.995 14.995 0 0 0 -28.739-6h-3.261a1 1 0 0 0 0 2h2.558a14.986 14.986 0 1 0 29.293 6h4.149a1 1 0 0 0 0-2zm-19 13a12.986 12.986 0 0 1 -12.364-17h4.95l3.707 3.707.009.006a2.96 2.96 0 0 0 -.302 1.287 3 3 0 1 0 3-3 2.957 2.957 0 0 0 -1.287.3l-.006-.009-4-4a1 1 0 0 0 -.707-.291h-4.521a12.993 12.993 0 0 1 24.521 6h-4a1 1 0 0 0 -.707.293l-3 3-.006.009a2.957 2.957 0 0 0 -1.287-.302 3 3 0 1 0 3 3 2.957 2.957 0 0 0 -.3-1.287l.009-.006 2.705-2.707h3.416a13.009 13.009 0 0 1 -12.83 11zm-1-13a1 1 0 1 1 -1 1 1 1 0 0 1 1-1zm6 6a1 1 0 1 1 -1-1 1 1 0 0 1 1 1z" data-original="#000000" class="active-path" data-old_color="#000000" fill="#6E6D6D"/><path d="m56 32h-2a1 1 0 0 0 0 2h2a1 1 0 0 0 0-2z" data-original="#000000" class="active-path" data-old_color="#000000" fill="#6E6D6D"/></g></g> </svg>
