<?xml version="1.0"?>
<svg xmlns="http://www.w3.org/2000/svg" xmlns:xlink="http://www.w3.org/1999/xlink" viewBox="0 0 64 64" width="512" height="512"><defs><linearGradient id="New_Gradient_Swatch" x1="32.243" y1="64.004" x2="31.367" y2="0.729" gradientUnits="userSpaceOnUse"><stop offset="0" stop-color="#e93e3a"/><stop offset="0.35" stop-color="#ed683c"/><stop offset="0.7" stop-color="#f3903f"/><stop offset="1" stop-color="#fdc70c"/></linearGradient><linearGradient id="New_Gradient_Swatch-2" x1="26.195" y1="64.088" x2="25.319" y2="0.812" xlink:href="#New_Gradient_Swatch"/><linearGradient id="New_Gradient_Swatch-3" x1="37.082" y1="63.937" x2="36.206" y2="0.662" xlink:href="#New_Gradient_Swatch"/><linearGradient id="New_Gradient_Swatch-4" x1="24.292" y1="64.114" x2="23.416" y2="0.839" xlink:href="#New_Gradient_Swatch"/><linearGradient id="New_Gradient_Swatch-5" x1="28.278" y1="64.059" x2="27.402" y2="0.784" xlink:href="#New_Gradient_Swatch"/><linearGradient id="New_Gradient_Swatch-6" x1="35.193" y1="63.963" x2="34.317" y2="0.688" xlink:href="#New_Gradient_Swatch"/><linearGradient id="New_Gradient_Swatch-7" x1="39.179" y1="63.908" x2="38.303" y2="0.633" xlink:href="#New_Gradient_Swatch"/><linearGradient id="New_Gradient_Swatch-8" x1="35.262" y1="63.963" x2="34.387" y2="0.687" xlink:href="#New_Gradient_Swatch"/></defs><g id="Partnership"><path d="M61,42a1,1,0,0,0,1-1V32a7.011,7.011,0,0,0-6-6.929v-1.1A4.977,4.977,0,0,0,58,20V19a1,1,0,0,0,1-1V16a5.992,5.992,0,0,0-10.348-4.123A18.859,18.859,0,0,0,35.268,2.286,18.461,18.461,0,0,0,32,2a19.026,19.026,0,0,0-16.654,9.875A5.992,5.992,0,0,0,5,16v2a1,1,0,0,0,1,1v1a4.977,4.977,0,0,0,2,3.974v1.1A7.011,7.011,0,0,0,2,32v9a1,1,0,0,0,1,1H5V56a3,3,0,0,0-3,3v2a1,1,0,0,0,1,1H9a1,1,0,0,0,.447-.1L11,61.118l1.553.777A1,1,0,0,0,13,62h6a1,1,0,0,0,1-1V59a3,3,0,0,0-3-3V42h2a1,1,0,0,0,1-1V35.719c.085.07.154.137.242.207A19,19,0,0,0,29.9,39.885,20,20,0,0,0,32,40c.35,0,.711-.01,1.054-.031A18.688,18.688,0,0,0,44,35.7V41a1,1,0,0,0,1,1h2V56a3,3,0,0,0-3,3v2a1,1,0,0,0,1,1h6a1,1,0,0,0,.447-.1L53,61.118l1.553.777A1,1,0,0,0,55,62h6a1,1,0,0,0,1-1V59a3,3,0,0,0-3-3V42ZM54,25.586l-1,1-1-1V24.9a5,5,0,0,0,2,0ZM53,23a3,3,0,0,1-3-3V19h.343a4.968,4.968,0,0,0,3.536-1.464L54,17.415l.707.706A2.96,2.96,0,0,0,56,18.87V20A3,3,0,0,1,53,23Zm0-11a4,4,0,0,1,4,4v1h-.172a1.009,1.009,0,0,1-.707-.293l-1.414-1.414a1,1,0,0,0-1.414,0l-.828.829A2.983,2.983,0,0,1,50.343,17H49V16A4,4,0,0,1,53,12Zm-5.593,1.845A5.961,5.961,0,0,0,47,16v2a1,1,0,0,0,1,1v1a4.972,4.972,0,0,0,.884,2.829,16.469,16.469,0,0,1-.515,2.691A7.005,7.005,0,0,0,44,32v1.027c-.093.093-.182.188-.279.28l-3.4-3.4L42.8,26.6A1,1,0,0,0,43,26V22a1,1,0,0,0-.4-.8L39,18.5V16a1,1,0,0,0-.606-.919L32,12.341V9.32l3.526-4.941A16.881,16.881,0,0,1,47.407,13.845ZM33.3,4.056,30.187,8.419A.994.994,0,0,0,30,9v4a1,1,0,0,0,.606.919L37,16.659V19a1,1,0,0,0,.4.8L41,22.5v3.167L38.2,29.4a1,1,0,0,0,.093,1.307l3.886,3.887A16.681,16.681,0,0,1,34,37.872V35a1,1,0,0,0,.447-.1l2-1A1,1,0,0,0,37,33V30a1,1,0,0,0-.293-.707l-2-2A1,1,0,0,0,34,27H30a1,1,0,0,0-.707.293l-2,2A1,1,0,0,0,27,30v3a1.006,1.006,0,0,0,.168.555L29,36.3v1.43a16.979,16.979,0,0,1-6.608-2.71l1.315-1.316A1,1,0,0,0,24,33V29.162l.832-2.495,4.683-2.81A1,1,0,0,0,30,23V19a1,1,0,0,0-.293-.707L27,15.586V12a1,1,0,0,0-.105-.447l-2-4a1,1,0,0,0-.271-.334L23.476,6.3A16.817,16.817,0,0,1,32,4C32.438,4,32.871,4.023,33.3,4.056ZM7,16a4,4,0,0,1,8,0v1h-.172a1.009,1.009,0,0,1-.707-.293l-1.414-1.414a1,1,0,0,0-1.414,0l-.828.829A2.983,2.983,0,0,1,8.343,17H7Zm1.343,3a4.968,4.968,0,0,0,3.536-1.464L12,17.415l.707.706A2.96,2.96,0,0,0,14,18.87V20a3,3,0,0,1-6,0V19ZM11,25a5,5,0,0,0,1-.1v.687l-1,1-1-1V24.9A5,5,0,0,0,11,25ZM8.764,60H4V59a1,1,0,0,1,1-1h5v1.382ZM18,59v1H13.236L12,59.382V58h5A1,1,0,0,1,18,59Zm-3-3H12V44H10V56H7V42h8Zm3-16H17V31H15v9H7V31H5v9H4V32a4.991,4.991,0,0,1,4.624-4.962L10,28.414V38h2V28.414l1.376-1.376A4.991,4.991,0,0,1,18,32ZM15.631,25.52a16.469,16.469,0,0,1-.515-2.691A4.972,4.972,0,0,0,16,20V19a1,1,0,0,0,1-1V16a5.977,5.977,0,0,0-.406-2.154,16.68,16.68,0,0,1,5.142-6.375L23.2,8.644,25,12.236V16a1,1,0,0,0,.293.707L28,19.414v3.02l-4.515,2.709a1,1,0,0,0-.433.541l-1,3A1,1,0,0,0,22,29v3.586L20.806,33.78Q20.37,33.4,20,33.022V32A7.005,7.005,0,0,0,15.631,25.52ZM31,37.956V36a1.006,1.006,0,0,0-.168-.555L29,32.7V30.414L30.414,29h3.172L35,30.414v1.968L33.764,33H33a1,1,0,0,0-1,1v3.987C31.673,37.987,31.336,37.976,31,37.956ZM46,32a4.991,4.991,0,0,1,4.624-4.962L52,28.414V38h2V28.414l1.376-1.376A4.991,4.991,0,0,1,60,32v8H59V31H57v9H49V31H47v9H46Zm4.764,28H46V59a1,1,0,0,1,1-1h5v1.382ZM60,59v1H55.236L54,59.382V58h5A1,1,0,0,1,60,59Zm-3-3H54V44H52V56H49V42h8Z" style="fill:url(#New_Gradient_Swatch)"/><path d="M26,46a4,4,0,1,0,4,4A4,4,0,0,0,26,46Zm0,6a2,2,0,1,1,2-2A2,2,0,0,1,26,52Z" style="fill:url(#New_Gradient_Swatch-2)"/><path d="M37,54a4,4,0,1,0,4,4A4,4,0,0,0,37,54Zm0,6a2,2,0,1,1,2-2A2,2,0,0,1,37,60Z" style="fill:url(#New_Gradient_Swatch-3)"/><rect x="23" y="41" width="2" height="4" style="fill:url(#New_Gradient_Swatch-4)"/><rect x="27" y="43" width="2" height="2" style="fill:url(#New_Gradient_Swatch-5)"/><rect x="34" y="48" width="2" height="4" style="fill:url(#New_Gradient_Swatch-6)"/><rect x="38" y="50" width="2" height="2" style="fill:url(#New_Gradient_Swatch-7)"/><rect x="34" y="44" width="2" height="2" style="fill:url(#New_Gradient_Swatch-8)"/></g></svg>
