<svg height="512" viewBox="0 0 64 64" width="512" xmlns="http://www.w3.org/2000/svg" xmlns:xlink="http://www.w3.org/1999/xlink"><linearGradient id="New_Gradient_Swatch" gradientUnits="userSpaceOnUse" x1="45" x2="45" y1="64.536" y2="-.054"><stop offset="0" stop-color="#e93e3a"/><stop offset=".35" stop-color="#ed683c"/><stop offset=".7" stop-color="#f3903f"/><stop offset="1" stop-color="#fdc70c"/></linearGradient><linearGradient id="New_Gradient_Swatch-2" x1="32" x2="32" xlink:href="#New_Gradient_Swatch" y1="64.536" y2="-.054"/><linearGradient id="New_Gradient_Swatch-3" x1="10" x2="10" xlink:href="#New_Gradient_Swatch" y1="64.536" y2="-.054"/><linearGradient id="New_Gradient_Swatch-4" x1="18" x2="18" xlink:href="#New_Gradient_Swatch" y1="64.536" y2="-.054"/><linearGradient id="New_Gradient_Swatch-5" x1="15" x2="15" xlink:href="#New_Gradient_Swatch" y1="64.536" y2="-.054"/><linearGradient id="New_Gradient_Swatch-6" x1="11" x2="11" xlink:href="#New_Gradient_Swatch" y1="64.536" y2="-.054"/><linearGradient id="New_Gradient_Swatch-7" x1="22" x2="22" xlink:href="#New_Gradient_Swatch" y1="64.536" y2="-.054"/><linearGradient id="New_Gradient_Swatch-8" x1="17" x2="17" xlink:href="#New_Gradient_Swatch" y1="64.536" y2="-.054"/><linearGradient id="New_Gradient_Swatch-9" x1="14" x2="14" xlink:href="#New_Gradient_Swatch" y1="64.536" y2="-.054"/><linearGradient id="New_Gradient_Swatch-10" x1="24" x2="24" xlink:href="#New_Gradient_Swatch" y1="64.536" y2="-.054"/><linearGradient id="New_Gradient_Swatch-13" x1="12" x2="12" xlink:href="#New_Gradient_Swatch" y1="64.536" y2="-.054"/><linearGradient id="New_Gradient_Swatch-14" x1="21" x2="21" xlink:href="#New_Gradient_Swatch" y1="64.536" y2="-.054"/><linearGradient id="New_Gradient_Swatch-16" x1="28" x2="28" xlink:href="#New_Gradient_Swatch" y1="64.536" y2="-.054"/><path d="m48 31.071v-1.1a4.977 4.977 0 0 0 2-3.971v-1a1 1 0 0 0 1-1v-2a6 6 0 0 0 -12 0v2a1 1 0 0 0 1 1v1a4.977 4.977 0 0 0 2 3.974v1.1a7.011 7.011 0 0 0 -6 6.926v1a1 1 0 0 0 1 1h16a1 1 0 0 0 1-1v-1a7.011 7.011 0 0 0 -6-6.929zm-7-9.071a4 4 0 0 1 8 0v1h-.172a1.009 1.009 0 0 1 -.707-.293l-1.414-1.414a1 1 0 0 0 -1.414 0l-.828.829a2.983 2.983 0 0 1 -2.122.878h-1.343zm1.343 3a4.968 4.968 0 0 0 3.536-1.464l.121-.121.707.706a2.96 2.96 0 0 0 1.293.749v1.13a3 3 0 0 1 -6 0v-1zm2.657 6a5 5 0 0 0 1-.1v.687l-1 1-1-1v-.687a5 5 0 0 0 1 .1zm-7 7a4.991 4.991 0 0 1 4.624-4.962l1.669 1.669a1 1 0 0 0 1.414 0l1.669-1.669a4.991 4.991 0 0 1 4.624 4.962z" fill="url(#New_Gradient_Swatch)"/><path d="m62 29a17.016 17.016 0 0 0 -14-16.719v-7.281a3 3 0 0 0 -3-3h-40a3 3 0 0 0 -3 3v54a3 3 0 0 0 3 3h40a3 3 0 0 0 3-3v-13.281a17.016 17.016 0 0 0 14-16.719zm-16-24v7.051c-.333-.02-.662-.051-1-.051s-.667.031-1 .051v-7.051a2.966 2.966 0 0 0 -.184-1h1.184a1 1 0 0 1 1 1zm-4 0v7.281a16.817 16.817 0 0 0 -2 .472v-7.753a2.966 2.966 0 0 0 -.184-1h1.184a1 1 0 0 1 1 1zm-10-1h2v2.764l-.1-.211a1.042 1.042 0 0 0 -1.79 0l-.1.211zm-27 56a1 1 0 0 1 -1-1v-54a1 1 0 0 1 1-1h25v7a1 1 0 0 0 1.895.447l1.105-2.211 1.1 2.211a1 1 0 0 0 1.9-.447v-7h1a1 1 0 0 1 1 1v8.526a17.01 17.01 0 0 0 -10 15.474 16.79 16.79 0 0 0 1.39 6.7l-4.268 7.823a1 1 0 0 0 1.1 1.453l9-2.083a17.147 17.147 0 0 0 2.778 1.578v14.529a1 1 0 0 1 -1 1zm35 0h-.184a2.966 2.966 0 0 0 .184-1v-13.757a16.827 16.827 0 0 0 2 .481v13.276a1 1 0 0 1 -1 1zm6-1a1 1 0 0 1 -1 1h-1.184a2.966 2.966 0 0 0 .184-1v-13.038c.332.019.665.038 1 .038s.667-.031 1-.051zm-1-15a14.861 14.861 0 0 1 -8.954-2.988 1 1 0 0 0 -.6-.2 1.016 1.016 0 0 0 -.225.026l-7.278 1.684 3.439-6.3a1 1 0 0 0 .028-.9 14.862 14.862 0 0 1 -1.41-6.322 15 15 0 1 1 15 15z" fill="url(#New_Gradient_Swatch-2)"/><path d="m8 8h4v2h-4z" fill="url(#New_Gradient_Swatch-3)"/><path d="m14 8h8v2h-8z" fill="url(#New_Gradient_Swatch-4)"/><path d="m8 12h14v2h-14z" fill="url(#New_Gradient_Swatch-5)"/><path d="m8 18h6v2h-6z" fill="url(#New_Gradient_Swatch-6)"/><path d="m16 18h12v2h-12z" fill="url(#New_Gradient_Swatch-7)"/><path d="m8 22h18v2h-18z" fill="url(#New_Gradient_Swatch-8)"/><path d="m8 26h12v2h-12z" fill="url(#New_Gradient_Swatch-9)"/><path d="m22 26h4v2h-4z" fill="url(#New_Gradient_Swatch-10)"/><path d="m8 30h18v2h-18z" fill="url(#New_Gradient_Swatch-8)"/><path d="m8 34h18v2h-18z" fill="url(#New_Gradient_Swatch-8)"/><path d="m8 38h8v2h-8z" fill="url(#New_Gradient_Swatch-13)"/><path d="m18 38h6v2h-6z" fill="url(#New_Gradient_Swatch-14)"/><path d="m8 42h14v2h-14z" fill="url(#New_Gradient_Swatch-5)"/><g fill="url(#New_Gradient_Swatch-16)"><path d="m24 48h8v2h-8z"/><path d="m24 52h8v2h-8z"/></g></svg>