<?xml version="1.0"?>
<svg xmlns="http://www.w3.org/2000/svg" xmlns:xlink="http://www.w3.org/1999/xlink" viewBox="0 0 64 64" width="512" height="512"><defs><linearGradient id="New_Gradient_Swatch" x1="11" y1="63.74" x2="11" y2="0.236" gradientUnits="userSpaceOnUse"><stop offset="0" stop-color="#e93e3a"/><stop offset="0.35" stop-color="#ed683c"/><stop offset="0.7" stop-color="#f3903f"/><stop offset="1" stop-color="#fdc70c"/></linearGradient><linearGradient id="New_Gradient_Swatch-2" x1="44" y1="63.74" x2="44" y2="0.236" xlink:href="#New_Gradient_Swatch"/><linearGradient id="New_Gradient_Swatch-3" x1="29" y1="63.74" x2="29" y2="0.236" xlink:href="#New_Gradient_Swatch"/><linearGradient id="New_Gradient_Swatch-5" x1="39" y1="63.74" x2="39" y2="0.236" xlink:href="#New_Gradient_Swatch"/><linearGradient id="New_Gradient_Swatch-6" x1="23" y1="63.74" x2="23" y2="0.236" xlink:href="#New_Gradient_Swatch"/></defs><g id="Retire"><path d="M14,17.071v-1.1A4.977,4.977,0,0,0,16,12V11a1,1,0,0,0,1-1V8A6,6,0,0,0,5,8v2a1,1,0,0,0,1,1v1a4.977,4.977,0,0,0,2,3.974v1.1A7.011,7.011,0,0,0,2,24V35a1,1,0,0,0,1,1H5V56a3,3,0,0,0-3,3v2a1,1,0,0,0,1,1H9a1,1,0,0,0,.447-.1L11,61.118l1.553.777A1,1,0,0,0,13,62h6a1,1,0,0,0,1-1V59a3,3,0,0,0-3-3V36h2a1,1,0,0,0,1-1V24A7.011,7.011,0,0,0,14,17.071ZM7,8a4,4,0,0,1,8,0V9h-.171a1,1,0,0,1-.708-.293L12.707,7.293a1,1,0,0,0-1.414,0l-.829.829A3.02,3.02,0,0,1,8.343,9H7Zm1.343,3a4.966,4.966,0,0,0,3.535-1.464L12,9.414l.707.707A2.96,2.96,0,0,0,14,10.87V12a3,3,0,0,1-6,0V11ZM11,17a5,5,0,0,0,1-.1v.687l-1,1-1-1V16.9A5,5,0,0,0,11,17ZM8.764,60H4V59a1,1,0,0,1,1-1h5v1.382ZM18,59v1H13.236L12,59.382V58h5A1,1,0,0,1,18,59Zm-3-3H12V40H10V56H7V36h8Zm3-22H17V23H15V34H7V23H5V34H4V24a4.991,4.991,0,0,1,4.624-4.962L10,20.414V30h2V20.414l1.376-1.376A4.991,4.991,0,0,1,18,24Z" style="fill:url(#New_Gradient_Swatch)"/><path d="M61,2H27a1,1,0,0,0-1,1V7a1,1,0,0,0,1,1h1v6h2V8H58V60H30V29H28V61a1,1,0,0,0,1,1H59a1,1,0,0,0,1-1V8h1a1,1,0,0,0,1-1V3A1,1,0,0,0,61,2ZM60,6H28V4H60Z" style="fill:url(#New_Gradient_Swatch-2)"/><rect x="28" y="20" width="2" height="3" style="fill:url(#New_Gradient_Swatch-3)"/><path d="M52.707,40.293A1,1,0,0,0,52,40H36a1,1,0,0,0-.707.293l-2,2A1,1,0,0,0,33,43V53a1,1,0,0,0,.293.707l2,2A1,1,0,0,0,36,56H52a1,1,0,0,0,.707-.293l2-2A1,1,0,0,0,55,53V43a1,1,0,0,0-.293-.707ZM53,52.586,51.586,54H36.414L35,52.586V43.414L36.414,42H51.586L53,43.414Z" style="fill:url(#New_Gradient_Swatch-2)"/><path d="M26,27h7v8a1,1,0,0,0,.293.707l2,2A1,1,0,0,0,36,38H52a1,1,0,0,0,.707-.293l2-2A1,1,0,0,0,55,35V13a1,1,0,0,0-.293-.707l-2-2A1,1,0,0,0,52,10H36a1,1,0,0,0-.707.293l-2,2A1,1,0,0,0,33,13v3H23v2H33v7H26Zm9-9h3.586l-1.293,1.293,1.414,1.414,3-3a1,1,0,0,0,0-1.414l-3-3-1.414,1.414L38.586,16H35V13.414L36.414,12H51.586L53,13.414V34.586L51.586,36H36.414L35,34.586V27h6.586l-1.293,1.293,1.414,1.414,3-3a1,1,0,0,0,0-1.414l-3-3-1.414,1.414L41.586,25H35Z" style="fill:url(#New_Gradient_Swatch-5)"/><rect x="22" y="25" width="2" height="2" style="fill:url(#New_Gradient_Swatch-6)"/></g></svg>
