<?xml version="1.0"?>
<svg xmlns="http://www.w3.org/2000/svg" height="512px" viewBox="0 0 512 512" width="512px" class=""><g><path d="m264.535156 324.265625c-89.40625 0-162.136718-72.730469-162.136718-162.132813 0-89.402343 72.730468-162.132812 162.136718-162.132812 89.402344 0 162.132813 72.730469 162.132813 162.132812 0 89.402344-72.730469 162.132813-162.132813 162.132813zm0-307.199219c-79.992187 0-145.070312 65.074219-145.070312 145.066406 0 79.992188 65.078125 145.066407 145.070312 145.066407 79.988282 0 145.066406-65.074219 145.066406-145.066407 0-79.992187-65.078124-145.066406-145.066406-145.066406zm0 0" data-original="#000000" class="active-path" data-old_color="#000000" fill="#282828"/><path d="m264.535156 324.265625c-43.070312 0-76.800781-71.21875-76.800781-162.132813 0-90.914062 33.730469-162.132812 76.800781-162.132812 43.066406 0 76.796875 71.21875 76.796875 162.132812 0 90.914063-33.730469 162.132813-76.796875 162.132813zm0-307.199219c-28.851562 0-59.734375 58.292969-59.734375 145.066406 0 86.777344 30.882813 145.066407 59.734375 145.066407 28.847656 0 59.730469-58.289063 59.730469-145.066407 0-86.773437-30.882813-145.066406-59.730469-145.066406zm0 0" data-original="#000000" class="active-path" data-old_color="#000000" fill="#282828"/><path d="m110.933594 153.601562h307.199218v17.066407h-307.199218zm0 0" data-original="#000000" class="active-path" data-old_color="#000000" fill="#282828"/><path d="m230.410156 443.734375c-3.132812 0-6.144531-1.726563-7.640625-4.71875l-93.863281-187.734375c-2.109375-4.214844-.402344-9.34375 3.8125-11.453125 4.207031-2.125 9.335938-.410156 11.453125 3.816406l93.867187 187.734375c2.105469 4.214844.398438 9.34375-3.816406 11.449219-1.230468.613281-2.535156.90625-3.8125.90625zm0 0" data-original="#000000" class="active-path" data-old_color="#000000" fill="#282828"/><path d="m264.535156 443.734375c-3.390625 0-6.589844-2.03125-7.929687-5.367187l-51.199219-128c-1.75-4.378907.375-9.34375 4.753906-11.09375 4.367188-1.734376 9.335938.382812 11.09375 4.753906l51.199219 128c1.75 4.375-.375 9.34375-4.753906 11.089844-1.03125.417968-2.109375.617187-3.164063.617187zm0 0" data-original="#000000" class="active-path" data-old_color="#000000" fill="#282828"/><path d="m153.601562 213.332031c-28.230468 0-51.203124-22.960937-51.203124-51.199219 0-4.710937 3.824218-8.53125 8.535156-8.53125h85.332031c4.710937 0 8.535156 3.820313 8.535156 8.53125 0 28.238282-22.972656 51.199219-51.199219 51.199219zm-33.058593-42.664062c3.796875 14.703125 17.175781 25.597656 33.058593 25.597656 15.878907 0 29.25-10.894531 33.054688-25.597656zm0 0" data-original="#000000" class="active-path" data-old_color="#000000" fill="#282828"/><path d="m375.464844 213.332031c-28.226563 0-51.199219-22.960937-51.199219-51.199219 0-4.710937 3.824219-8.53125 8.535156-8.53125h85.332031c4.710938 0 8.535157 3.820313 8.535157 8.53125 0 28.238282-22.972657 51.199219-51.203125 51.199219zm-33.054688-42.664062c3.796875 14.703125 17.175782 25.597656 33.054688 25.597656 15.882812 0 29.253906-10.894531 33.058594-25.597656zm0 0" data-original="#000000" class="active-path" data-old_color="#000000" fill="#282828"/><path d="m264.535156 238.933594c-42.351562 0-76.800781-34.457032-76.800781-76.800782 0-4.710937 3.820313-8.53125 8.53125-8.53125h136.535156c4.710938 0 8.53125 3.820313 8.53125 8.53125 0 42.34375-34.449219 76.800782-76.796875 76.800782zm-59.128906-68.265625c4.15625 28.910156 29.082031 51.199219 59.128906 51.199219 30.042969 0 54.96875-22.289063 59.125-51.199219zm0 0" data-original="#000000" class="active-path" data-old_color="#000000" fill="#282828"/><path d="m324.265625 512h-119.464844c-4.710937 0-8.535156-3.824219-8.535156-8.535156v-68.265625c0-4.710938 3.824219-8.53125 8.535156-8.53125h119.464844c4.710937 0 8.535156 3.820312 8.535156 8.53125v68.265625c0 4.710937-3.824219 8.535156-8.535156 8.535156zm-110.933594-17.066406h102.402344v-51.199219h-102.402344zm0 0" data-original="#000000" class="active-path" data-old_color="#000000" fill="#282828"/><path d="m298.65625 443.734375c-1.277344 0-2.582031-.292969-3.8125-.898437-4.214844-2.105469-5.921875-7.234376-3.8125-11.449219l93.863281-187.734375c2.109375-4.222656 7.238281-5.929688 11.453125-3.816406 4.214844 2.109374 5.921875 7.238281 3.816406 11.453124l-93.867187 187.734376c-1.496094 2.984374-4.507813 4.710937-7.640625 4.710937zm0 0" data-original="#000000" class="active-path" data-old_color="#000000" fill="#282828"/><path d="m264.535156 443.734375c-1.058594 0-2.125-.199219-3.167968-.617187-4.378907-1.757813-6.503907-6.714844-4.753907-11.089844l51.199219-128c1.75-4.378906 6.71875-6.496094 11.09375-4.753906 4.378906 1.757812 6.503906 6.714843 4.753906 11.09375l-51.199218 128c-1.339844 3.335937-4.546876 5.367187-7.925782 5.367187zm0 0" data-original="#000000" class="active-path" data-old_color="#000000" fill="#282828"/><path d="m341.332031 443.734375h-153.597656c-4.710937 0-8.535156-3.824219-8.535156-8.535156 0-4.710938 3.824219-8.53125 8.535156-8.53125h153.597656c4.710938 0 8.535157 3.820312 8.535157 8.53125 0 4.710937-3.824219 8.535156-8.535157 8.535156zm0 0" data-original="#000000" class="active-path" data-old_color="#000000" fill="#282828"/><path d="m341.332031 477.867188h-153.597656c-4.710937 0-8.535156-3.824219-8.535156-8.535157 0-4.710937 3.824219-8.53125 8.535156-8.53125h153.597656c4.710938 0 8.535157 3.820313 8.535157 8.53125 0 4.710938-3.824219 8.535157-8.535157 8.535157zm0 0" data-original="#000000" class="active-path" data-old_color="#000000" fill="#282828"/><path d="m332.800781 375.464844h-136.535156c-4.710937 0-8.53125-3.820313-8.53125-8.53125 0-4.710938 3.820313-8.535156 8.53125-8.535156h136.535156c4.710938 0 8.53125 3.824218 8.53125 8.535156 0 4.710937-3.820312 8.53125-8.53125 8.53125zm0 0" data-original="#000000" class="active-path" data-old_color="#000000" fill="#282828"/><path d="m34.132812 102.398438c-4.710937 0-8.53125-3.820313-8.53125-8.53125 0-9.414063-7.65625-17.066407-17.066406-17.066407-4.710937 0-8.535156-3.824219-8.535156-8.535156s3.824219-8.53125 8.535156-8.53125c9.078125 0 17.339844 3.566406 23.464844 9.367187 8.738281-15.75 25.546875-26.433593 44.800781-26.433593 4.710938 0 8.53125 3.820312 8.53125 8.53125 0 4.710937-3.820312 8.535156-8.53125 8.535156-18.824219 0-34.132812 15.308594-34.132812 34.132813 0 4.710937-3.824219 8.53125-8.535157 8.53125zm0 0" data-original="#000000" class="active-path" data-old_color="#000000" fill="#282828"/><path d="m460.800781 281.601562c-4.710937 0-8.535156-3.824218-8.535156-8.535156 0-9.410156-7.652344-17.066406-17.066406-17.066406-4.710938 0-8.53125-3.824219-8.53125-8.535156 0-4.707032 3.820312-8.53125 8.53125-8.53125 9.082031 0 17.339843 3.566406 23.46875 9.371094 8.738281-15.753907 25.546875-26.4375 44.796875-26.4375 4.710937 0 8.535156 3.824218 8.535156 8.53125 0 4.710937-3.824219 8.535156-8.535156 8.535156-18.824219 0-34.132813 15.308594-34.132813 34.132812 0 4.710938-3.820312 8.535156-8.53125 8.535156zm0 0" data-original="#000000" class="active-path" data-old_color="#000000" fill="#282828"/><path d="m119.464844 375.464844h-85.332032c-18.824218 0-34.132812-15.308594-34.132812-34.132813 0-19.976562 17.613281-36.0625 37.613281-33.945312 6.632813-15.34375 21.941407-25.785157 39.1875-25.785157 17.246094 0 32.554688 10.441407 39.183594 25.785157 20.046875-2.117188 37.617187 13.96875 37.617187 33.945312 0 18.824219-15.308593 34.132813-34.136718 34.132813zm-85.332032-51.199219c-9.410156 0-17.066406 7.65625-17.066406 17.066406 0 9.414063 7.65625 17.066407 17.066406 17.066407h85.332032c9.414062 0 17.070312-7.652344 17.070312-17.066407 0-11.417969-11.417968-20.410156-23.203125-15.863281-2.347656.898438-4.976562.726562-7.1875-.476562-2.207031-1.203126-3.761719-3.335938-4.265625-5.804688-2.378906-11.886719-12.925781-20.519531-25.078125-20.519531-12.152343 0-22.699219 8.632812-25.089843 20.519531-.492188 2.46875-2.054688 4.59375-4.265626 5.804688-2.210937 1.210937-4.839843 1.382812-7.183593.476562-2.058594-.800781-4.125-1.203125-6.128907-1.203125zm0 0" data-original="#000000" class="active-path" data-old_color="#000000" fill="#282828"/><path d="m477.867188 426.667969h-85.332032c-18.828125 0-34.136718-15.308594-34.136718-34.132813 0-19.976562 17.621093-36.039062 37.617187-33.949218 6.628906-15.339844 21.9375-25.785157 39.183594-25.785157 17.246093 0 32.554687 10.445313 39.1875 25.785157 20.015625-2.082032 37.613281 13.972656 37.613281 33.949218 0 18.824219-15.308594 34.132813-34.132812 34.132813zm-85.332032-51.203125c-9.414062 0-17.070312 7.65625-17.070312 17.070312 0 9.410156 7.65625 17.066406 17.070312 17.066406h85.332032c9.410156 0 17.066406-7.65625 17.066406-17.066406 0-11.417968-11.425782-20.40625-23.203125-15.867187-2.347657.90625-4.972657.734375-7.183594-.476563-2.210937-1.210937-3.765625-3.335937-4.265625-5.800781-2.382812-11.886719-12.929688-20.523437-25.082031-20.523437-12.152344 0-22.699219 8.636718-25.085938 20.523437-.496093 2.464844-2.058593 4.589844-4.269531 5.800781-2.207031 1.210938-4.835938 1.382813-7.183594.476563-2.054687-.800781-4.121094-1.203125-6.125-1.203125zm0 0" data-original="#000000" class="active-path" data-old_color="#000000" fill="#282828"/><path d="m418.132812 170.667969h-85.332031c-4.710937 0-8.535156-3.824219-8.535156-8.535157 0-28.234374 22.972656-51.199218 51.199219-51.199218 28.230468 0 51.203125 22.964844 51.203125 51.199218 0 4.710938-3.824219 8.535157-8.535157 8.535157zm-75.722656-17.066407h66.105469c-3.796875-14.703124-17.175781-25.601562-33.058594-25.601562-15.878906 0-29.242187 10.898438-33.046875 25.601562zm0 0" data-original="#000000" class="active-path" data-old_color="#000000" fill="#282828"/><path d="m196.265625 170.667969h-85.332031c-4.710938 0-8.535156-3.824219-8.535156-8.535157 0-28.234374 22.972656-51.199218 51.203124-51.199218 28.226563 0 51.199219 22.964844 51.199219 51.199218 0 4.710938-3.824219 8.535157-8.535156 8.535157zm-75.722656-17.066407h66.105469c-3.796876-14.703124-17.175782-25.601562-33.058594-25.601562-15.878906 0-29.242188 10.898438-33.046875 25.601562zm0 0" data-original="#000000" class="active-path" data-old_color="#000000" fill="#282828"/><path d="m332.800781 170.667969h-136.535156c-4.710937 0-8.53125-3.824219-8.53125-8.535157 0-42.34375 34.449219-76.800781 76.800781-76.800781 42.347656 0 76.796875 34.457031 76.796875 76.800781 0 4.710938-3.820312 8.535157-8.53125 8.535157zm-127.394531-17.066407h118.246094c-4.15625-28.914062-29.082032-51.203124-59.128906-51.203124-30.042969 0-54.960938 22.289062-59.117188 51.203124zm0 0" data-original="#000000" class="active-path" data-old_color="#000000" fill="#282828"/></g> </svg>
