<?xml version="1.0"?>
<svg xmlns="http://www.w3.org/2000/svg" height="512px" viewBox="0 -11 511.936 511" width="512px"><g><path d="m399.464844 45.964844c-.167969-.503906-.402344-.9375-.664063-1.394532-.25-.4375-.503906-.839843-.832031-1.222656-.34375-.398437-.730469-.71875-1.144531-1.046875-.390625-.304687-.769531-.585937-1.214844-.824219-.488281-.257812-1-.410156-1.539063-.5625-.308593-.085937-.566406-.277343-.902343-.324218l-264.273438-40.027344c-.117187-.015625-.222656.035156-.351562.015625-.183594-.015625-.351563-.109375-.542969-.109375-.023438 0-.039062 0-.0625 0-.007812 0-.007812 0-.015625 0-.011719 0-.019531.007812-.027344.007812-52.132812.039063-97.007812 31.457032-116.894531 76.304688-.160156.285156-.3125.566406-.433594.878906-6.765625 15.582032-10.566406 32.75-10.566406 50.800782v.007812c0 18.03125 3.792969 35.175781 10.542969 50.75.136719.359375.304687.671875.488281 1 13.441406 30.242188 38.214844 54.328125 68.953125 66.824219v121.457031c0 23.734375 17.335937 43.457031 40 47.28125v16.695312c0 22.0625-17.953125 40.007813-40.015625 40.007813h-71.90625c-4.421875 0-8 3.574219-8 8 0 4.421875 3.578125 8 8 8h71.90625c30.886719 0 56.015625-25.128906 56.015625-56.007813v-16.703124c22.664063-3.832032 40-23.546876 40-47.28125v-47.976563h16.015625c4.425781 0 8-3.574219 8-8v-48.046875c0-.015625-.007812-.023438-.007812-.039062 0-.019532.007812-.027344.007812-.042969-.007812-.640625-.230469-1.199219-.375-1.796875-.113281-.417969-.105469-.875-.265625-1.265625-.230469-.535157-.632813-.960938-.96875-1.433594-.253906-.359375-.4375-.789063-.75-1.101563-.382813-.378906-.878906-.601562-1.328125-.898437-.410156-.261719-.761719-.613281-1.207031-.804687-.953125-.402344-2-.625-3.105469-.625-.023438 0-.046875 0-.078125 0l-15.9375.152343v-7.328125l217.175781-32.890625c.335938-.046875.59375-.238281.910156-.328125.539063-.160156 1.050782-.300781 1.53125-.558594.445313-.230468.832032-.511718 1.214844-.824218.414063-.328125.800782-.648438 1.144532-1.046875.328124-.382813.574218-.800781.832031-1.226563.261719-.453125.496093-.886718.664062-1.390625.167969-.503906.238281-1.007812.304688-1.535156.046875-.335937.207031-.640625.207031-.992187v-160c0-.351563-.160156-.65625-.199219-.992188-.066406-.527344-.144531-1.039062-.304687-1.535156zm-263.542969 193.214844v-221.375l224.046875 33.925781v153.511719zm240.046875-185.023438 8 1.207031v146.25l-8 1.207031zm-344.785156 130.367188 24.808594.023437h.007812c4.414062 0 8-3.574219 8-7.992187 0-4.421876-3.574219-8.007813-7.992188-8.007813l-32.480468-.023437c-3.871094-10.078126-6.328125-20.832032-7.128906-32.046876l39.585937.023438h.007813c4.414062 0 8-3.574219 8-7.992188 0-4.421874-3.578126-8.007812-7.992188-8.007812l-39.59375-.023438c.800781-11.222656 3.25-21.976562 7.128906-32.046874l32.464844.023437h.007812c4.417969 0 8-3.578125 8-7.992187 0-4.425782-3.574218-8.007813-7.992187-8.007813l-24.847656-.023437c18.136719-31.195313 50.832031-52.832032 88.753906-55.554688v223.183594c-37.914063-2.726563-70.601563-24.351563-88.738281-55.535156zm152.816406 88.023437v31.96875h-8.015625v-31.894531zm-24.015625 95.945313c0 17.648437-14.351563 32-32 32s-32-14.351563-32-32v-116.238282c10.007813 2.589844 20.441406 4.117188 31.230469 4.175782.167968.007812.3125.085937.480468.085937.402344 0 .800782-.03125 1.199219-.09375l31.089844-4.714844zm0 0" data-original="#000000" class="active-path" data-old_color="#000000" fill="#FFF"/><path d="m120 296.515625v15.984375c-4.425781 0-8 3.574219-8 8s3.574219 8 8 8v16.046875c0 4.425781 3.574219 8 8 8s8-3.574219 8-8v-16.046875c4.425781 0 8-3.574219 8-8s-3.574219-8-8-8v-15.984375c0-4.421875-3.574219-8-8-8s-8 3.578125-8 8zm0 0" data-original="#000000" class="active-path" data-old_color="#000000" fill="#FFF"/><path d="m503.9375 120.5h-80c-4.425781 0-8 3.574219-8 8s3.574219 8 8 8h80c4.421875 0 8-3.574219 8-8s-3.578125-8-8-8zm0 0" data-original="#000000" class="active-path" data-old_color="#000000" fill="#FFF"/><path d="m415.9375 96.5c0 4.425781 3.574219 8 8 8h39.949219c4.425781 0 8-3.574219 8-8s-3.574219-8-8-8h-39.949219c-4.425781 0-8 3.574219-8 8zm0 0" data-original="#000000" class="active-path" data-old_color="#000000" fill="#FFF"/><path d="m463.886719 152.5h-39.949219c-4.425781 0-8 3.574219-8 8s3.574219 8 8 8h39.949219c4.425781 0 8-3.574219 8-8s-3.574219-8-8-8zm0 0" data-original="#000000" class="active-path" data-old_color="#000000" fill="#FFF"/></g> </svg>
