<?xml version="1.0"?>
<svg xmlns="http://www.w3.org/2000/svg" height="512px" viewBox="0 0 512 512" width="512px"><g><path d="m512 43.910156c0-10.8125-3.972656-21.207031-11.183594-29.265625-8.324218-9.304687-20.261718-14.644531-32.753906-14.644531-10.8125 0-21.207031 3.972656-29.34375 11.25l-68.335938 62.730469c-3.050781 2.804687-3.253906 7.546875-.453124 10.597656 2.804687 3.054687 7.546874 3.253906 10.597656.453125l68.261718-62.667969c5.3125-4.75 12.15625-7.363281 19.273438-7.363281 8.226562 0 16.089844 3.515625 21.574219 9.644531 4.75 5.304688 7.363281 12.148438 7.363281 19.265625 0 7.148438-2.613281 14-7.300781 19.230469l-153.9375 167.6875-15.742188-15.742187c-2.929687-2.929688-7.675781-2.929688-10.605469 0-2.929687 2.929687-2.929687 7.679687 0 10.605468l16.195313 16.195313-54.148437 58.984375-60.328126-60.332032 58.980469-54.144531 18.046875 18.042969c1.460938 1.464844 3.382813 2.195312 5.300782 2.195312 1.921874 0 3.839843-.730468 5.304687-2.195312 2.929687-2.929688 2.929687-7.675781 0-10.609375l-17.589844-17.589844 77.253907-70.921875c3.050781-2.800781 3.253906-7.542968.453124-10.59375-2.800781-3.050781-7.542968-3.253906-10.597656-.453125l-152.324218 139.835938-170.117188 87.636719c-18.921875 9.746093-28.960938 30.414062-24.980469 51.433593 6.476563 34.226563 22.988281 65.410157 47.746094 90.179688.003906.003906.007813.011719.015625.015625 0 0 .003906.003906.003906.003906s.003906.003906.003906.003906c24.765626 24.769532 55.953126 41.28125 90.1875 47.761719 3.0625.578125 6.117188.859375 9.132813.859375 17.679687 0 33.980469-9.679688 42.304687-25.839844l87.640626-170.121094 222.914062-242.820312c7.214844-8.046875 11.1875-18.457031 11.1875-29.308594zm-335.078125 435.378906c-6.679687 12.96875-20.871094 19.835938-35.316406 17.113282-7.480469-1.417969-14.78125-3.390625-21.863281-5.839844l40.179687-55.488281c2.425781-3.351563 1.675781-8.042969-1.679687-10.46875-3.355469-2.433594-8.042969-1.683594-10.472657 1.675781l-42.367187 58.503906c-14.90625-6.867187-28.601563-16-40.625-26.957031l48.113281-48.105469c2.925781-2.933594 2.925781-7.679687 0-10.609375-2.929687-2.925781-7.679687-2.925781-10.609375 0l-48.109375 48.109375c-10.949219-12.023437-20.082031-25.714844-26.953125-40.625l58.503906-42.367187c3.355469-2.429688 4.105469-7.117188 1.675782-10.472657-2.429688-3.355468-7.117188-4.105468-10.472657-1.675781l-55.484375 40.179688c-2.449218-7.089844-4.425781-14.390625-5.839844-21.875-2.734374-14.4375 4.140626-28.628907 17.109376-35.308594l166.148437-85.59375 63.660156 63.660156zm0 0" data-original="#000000" class="active-path" data-old_color="#000000" fill="#FFF"/></g> </svg>
