<?xml version="1.0"?>
<svg xmlns="http://www.w3.org/2000/svg" id="Layer_5" enable-background="new 0 0 64 64" height="512px" viewBox="0 0 64 64" width="512px"><g><path d="m20 32c0-.855-.364-1.624-.941-2.171l6.178-28.829h-7.991l-1.246 4.36-1.246-4.36h-13.991l6.177 28.829c-.576.547-.94 1.316-.94 2.171 0 1.654 1.346 3 3 3h1v25c0 1.654 1.346 3 3 3s3-1.346 3-3v-25h1c1.654 0 3-1.346 3-3zm-16.763-29h10.009l2.754 9.64 2.754-9.64h4.009l-5.576 26.019c-.063-.004-.123-.019-.187-.019h-8c-.064 0-.124.015-.187.019zm4.763 29c0-.551.449-1 1-1h8c.551 0 1 .449 1 1s-.449 1-1 1h-8c-.551 0-1-.449-1-1zm6 28c0 .551-.449 1-1 1s-1-.449-1-1v-25h2z" data-original="#000000" class="active-path" data-old_color="#000000" fill="#FFF"/><path d="m7 5.901h2v10.198h-2z" transform="matrix(.981 -.196 .196 .981 -2.004 1.785)" data-original="#000000" class="active-path" data-old_color="#000000" fill="#FFF"/><path d="m11.39 19.5h9.22v2h-9.22z" transform="matrix(.217 -.976 .976 .217 -7.482 31.674)" data-original="#000000" class="active-path" data-old_color="#000000" fill="#FFF"/><path d="m59 46v-30c0-1.654-1.346-3-3-3h-30c-1.654 0-3 1.346-3 3v27c0 2.206-1.794 4-4 4v2c2.206 0 4 1.794 4 4h2c0-2.206 1.794-4 4-4h27c1.654 0 3-1.346 3-3zm-35 3.687c-.444-.668-1.019-1.242-1.687-1.687.668-.444 1.242-1.019 1.687-1.687.444.668 1.019 1.242 1.687 1.687-.668.444-1.243 1.019-1.687 1.687zm1-6.687v-27c0-.551.449-1 1-1h30c.551 0 1 .449 1 1v30c0 .551-.449 1-1 1h-27c-2.206 0-4-1.794-4-4z" data-original="#000000" class="active-path" data-old_color="#000000" fill="#FFF"/><path d="m27 45h28v-28h-28zm2-13h11v11h-11zm13 11v-11h11v11zm11-13h-11v-11h11zm-13-11v11h-11v-11z" data-original="#000000" class="active-path" data-old_color="#000000" fill="#FFF"/><path d="m59 51h-2c0 2.206-1.794 4-4 4v2c2.206 0 4 1.794 4 4h2c0-2.206 1.794-4 4-4v-2c-2.206 0-4-1.794-4-4zm-1 6.687c-.444-.668-1.019-1.242-1.687-1.687.668-.444 1.242-1.019 1.687-1.687.444.668 1.019 1.242 1.687 1.687-.668.444-1.243 1.019-1.687 1.687z" data-original="#000000" class="active-path" data-old_color="#000000" fill="#FFF"/><path d="m51 11h2c0-2.206 1.794-4 4-4v-2c-2.206 0-4-1.794-4-4h-2c0 2.206-1.794 4-4 4v2c2.206 0 4 1.794 4 4zm1-6.687c.444.668 1.019 1.243 1.687 1.687-.668.444-1.243 1.019-1.687 1.687-.444-.668-1.019-1.243-1.687-1.687.668-.444 1.243-1.019 1.687-1.687z" data-original="#000000" class="active-path" data-old_color="#000000" fill="#FFF"/></g> </svg>
