<?xml version="1.0"?>
<svg xmlns="http://www.w3.org/2000/svg" height="512px" viewBox="0 -52 500.0047 500" width="512px"><g><path d="m497.21875 85.257812c-1.855469-1.519531-4.308594-2.09375-6.644531-1.558593l-285.558594 64.222656c-3.601563.84375-6.117187 4.101563-6.015625 7.804687v123.277344h-32.3125l-31.300781-272.101562c-.480469-4-3.917969-6.980469-7.945313-6.89843775h-51.375c-4.027344-.08203125-7.464844 2.89843775-7.949218 6.89843775l-31.296876 272.101562h-29.257812c-4.417969 0-7.5625 3.957032-7.5625 8.375v100.613282c0 4.417968 3.144531 8.011718 7.5625 8.011718h484.875c4.417969 0 7.5625-3.59375 7.5625-8.011718v-296.488282c.082031-2.398437-.941406-4.703125-2.78125-6.246094zm-426.347656 37.992188c1.457031.242188 2.832031.421875 4.023437.570312 8.917969 1.011719 17.886719 1.480469 26.859375 1.414063 8.976563.066406 17.945313-.402344 26.859375-1.414063 1.191407-.148437 2.566407-.328124 4.023438-.570312l9.164062 79.71875c-6.226562 1.394531-20.21875 2.914062-39.921875 2.988281-20.300781.070313-34.1875-1.433593-40.179687-2.890625zm12.328125-107.246094h37.109375l10.5 91.371094c-12.078125 2.410156-46.035156 2.40625-58.113282 0zm-23.335938 202.839844c7.582031 1.464844 15.269531 2.335938 22.984375 2.605469 5.605469.28125 11.5625.464843 17.535156.464843 11.132813.058594 22.261719-.460937 33.339844-1.554687 3.023438-.332031 6.523438-.894531 9.917969-1.574219l6.941406 60.21875h-97.652343zm139.136719 76.160156v11h-183v-11zm-183 27h183v58h-183zm468 58h-269v-217.875l269-60.625zm0 0" data-original="#1e1b1b" class="active-path" data-old_color="#1e1b1b" fill="#1e1b1b"/><path d="m297 250.003906c0-4.417968-3.582031-8-8-8h-51c-4.417969 0-8 3.582032-8 8v33c0 4.417969 3.582031 8 8 8h51c4.417969 0 8-3.582031 8-8zm-51 8h35v17h-35zm0 0" data-original="#1e1b1b" class="active-path" data-old_color="#1e1b1b" fill="#1e1b1b"/><path d="m297 187.003906c0-4.417968-3.582031-8-8-8h-51c-4.417969 0-8 3.582032-8 8v33c0 4.417969 3.582031 8 8 8h51c4.417969 0 8-3.582031 8-8zm-51 8h35v17h-35zm0 0" data-original="#1e1b1b" class="active-path" data-old_color="#1e1b1b" fill="#1e1b1b"/><path d="m297 315.003906c0-4.417968-3.582031-8-8-8h-51c-4.417969 0-8 3.582032-8 8v33c0 4.417969 3.582031 8 8 8h51c4.417969 0 8-3.582031 8-8zm-51 8h35v17h-35zm0 0" data-original="#1e1b1b" class="active-path" data-old_color="#1e1b1b" fill="#1e1b1b"/><path d="m382 250.003906c0-4.417968-3.582031-8-8-8h-51c-4.417969 0-8 3.582032-8 8v33c0 4.417969 3.582031 8 8 8h51c4.417969 0 8-3.582031 8-8zm-51 8h36v17h-36zm0 0" data-original="#1e1b1b" class="active-path" data-old_color="#1e1b1b" fill="#1e1b1b"/><path d="m382 187.003906c0-4.417968-3.582031-8-8-8h-51c-4.417969 0-8 3.582032-8 8v33c0 4.417969 3.582031 8 8 8h51c4.417969 0 8-3.582031 8-8zm-51 8h36v17h-36zm0 0" data-original="#1e1b1b" class="active-path" data-old_color="#1e1b1b" fill="#1e1b1b"/><path d="m382 315.003906c0-4.417968-3.582031-8-8-8h-51c-4.417969 0-8 3.582032-8 8v33c0 4.417969 3.582031 8 8 8h51c4.417969 0 8-3.582031 8-8zm-51 8h36v17h-36zm0 0" data-original="#1e1b1b" class="active-path" data-old_color="#1e1b1b" fill="#1e1b1b"/><path d="m468 250.003906c0-4.417968-3.582031-8-8-8h-51c-4.417969 0-8 3.582032-8 8v33c0 4.417969 3.582031 8 8 8h51c4.417969 0 8-3.582031 8-8zm-51 8h35v17h-35zm0 0" data-original="#1e1b1b" class="active-path" data-old_color="#1e1b1b" fill="#1e1b1b"/><path d="m468 187.003906c0-4.417968-3.582031-8-8-8h-51c-4.417969 0-8 3.582032-8 8v33c0 4.417969 3.582031 8 8 8h51c4.417969 0 8-3.582031 8-8zm-51 8h35v17h-35zm0 0" data-original="#1e1b1b" class="active-path" data-old_color="#1e1b1b" fill="#1e1b1b"/><path d="m468 315.003906c0-4.417968-3.582031-8-8-8h-51c-4.417969 0-8 3.582032-8 8v33c0 4.417969 3.582031 8 8 8h51c4.417969 0 8-3.582031 8-8zm-51 8h35v17h-35zm0 0" data-original="#1e1b1b" class="active-path" data-old_color="#1e1b1b" fill="#1e1b1b"/></g> </svg>
