<?xml version="1.0"?>
<svg xmlns="http://www.w3.org/2000/svg" height="512px" viewBox="-26 0 512 512" width="512px" class=""><g><path d="m215.117188 89.996094h30v30h-30zm0 0" data-original="#000000" class="active-path" data-old_color="#000000" fill="#FFF"/><path d="m215.117188 389.984375h30v30h-30zm0 0" data-original="#000000" class="active-path" data-old_color="#000000" fill="#FFF"/><path d="m446.816406 361.570312c-15.546875-7.773437-28.597656-19.699218-37.734375-34.484374-20.820312-33.691407-27.359375-60.824219-19.433593-80.648438 6.707031-16.765625 24.050781-28.925781 51.558593-36.136719 3.015625-.789062 5.011719-1.3125 7.367188-2.925781l9.34375-6.386719-37.96875-113.914062-13.476563 3.371093c-.472656.117188-48.121094 11.195313-77.082031-11.421874-16.109375-12.574219-24.277344-34.117188-24.277344-64.023438v-15h-149.992187v15c0 29.847656-8.136719 51.363281-24.175782 63.945312-29.199218 22.910157-76.738281 11.609376-77.183593 11.5l-13.476563-3.371093-37.96875 113.914062 9.34375 6.386719c2.355469 1.613281 4.347656 2.132812 7.363282 2.925781 27.507812 7.210938 44.851562 19.371094 51.558593 36.140625 7.925781 19.824219 1.390625 46.957032-19.429687 80.644532-9.136719 14.785156-22.1875 26.710937-37.734375 34.484374l-13.417969 6.707032 59.304688 118.613281 14.136718-9.425781c50.203125-33.46875 104.535156-25.320313 145.335938 21.792968l11.035156 12.742188 11.375-12.441406c45.546875-49.820313 93.171875-57.046875 145.605469-22.09375l14.136719 9.425781 59.304687-118.613281zm-57.84375 82.148438c-55.628906-30.503906-109.980468-22.257812-158.683594 24.109375-20.828124-20.078125-44.957031-33.269531-70.550781-38.453125-8.003906-1.621094-16.082031-2.425781-24.1875-2.425781-21.546875 0-43.269531 5.691406-64.242187 16.867187l-31.46875-62.9375c14.835937-9.828125 27.410156-22.773437 36.832031-38.023437 26.097656-42.222657 33.417969-78.410157 21.765625-107.554688-9.203125-23.011719-29.089844-39.867187-59.195312-50.21875l21.03125-63.097656c20.488281 2.617187 59.601562 3.667969 89.035156-19.3125 20.660156-16.132813 32.464844-40.535156 35.195312-72.671875h91.226563c2.730469 32.136719 14.535156 56.539062 35.195312 72.667969 29.4375 22.984375 68.546875 21.933593 89.035157 19.316406l21.035156 63.09375c-30.109375 10.351563-50 27.207031-59.199219 50.21875-11.65625 29.144531-4.332031 65.332031 21.765625 107.558594 9.421875 15.25 21.996094 28.195312 36.832031 38.023437zm0 0" data-original="#000000" class="active-path" data-old_color="#000000" fill="#FFF"/><path d="m155.121094 239.992188h149.992187v30h-149.992187zm0 0" data-original="#000000" class="active-path" data-old_color="#000000" fill="#FFF"/><path d="m155.121094 179.992188h149.992187v30h-149.992187zm0 0" data-original="#000000" class="active-path" data-old_color="#000000" fill="#FFF"/><path d="m155.121094 299.988281h149.992187v30h-149.992187zm0 0" data-original="#000000" class="active-path" data-old_color="#000000" fill="#FFF"/></g> </svg>
