<?xml version="1.0"?>
<svg xmlns="http://www.w3.org/2000/svg" id="outline" height="512px" viewBox="0 0 64 64" width="512px" class="hovered-paths"><g><circle cx="16" cy="21" r="1" data-original="#000000" class="hovered-path active-path" data-old_color="#000000" fill="#FFF"/><path d="m14 16h4v2h-4z" data-original="#000000" class="hovered-path active-path" data-old_color="#000000" fill="#FFF"/><circle cx="26" cy="21" r="1" data-original="#000000" class="hovered-path active-path" data-old_color="#000000" fill="#FFF"/><path d="m24 16h4v2h-4z" data-original="#000000" class="hovered-path active-path" data-old_color="#000000" fill="#FFF"/><path d="m20 22h2v4h-2z" data-original="#000000" class="hovered-path active-path" data-old_color="#000000" fill="#FFF"/><path d="m25.12354 28.85645-1.03223-1.7129a6.10765 6.10765 0 0 1 -6.18262 0l-1.03223 1.7129a8.00633 8.00633 0 0 0 8.24708 0z" data-original="#000000" class="hovered-path active-path" data-old_color="#000000" fill="#FFF"/><path d="m8 50h2v12h-2z" data-original="#000000" class="hovered-path active-path" data-old_color="#000000" fill="#FFF"/><path d="m59 2h-20a3.00328 3.00328 0 0 0 -3 3v40h-5a3.00328 3.00328 0 0 0 -3 3v9a5.00588 5.00588 0 0 0 5 5h24a5.00588 5.00588 0 0 0 5-5v-52a3.00328 3.00328 0 0 0 -3-3zm-23 55a3 3 0 0 1 -6 0v-9a1.0013 1.0013 0 0 1 1-1h5zm24 0a3.00328 3.00328 0 0 1 -3 3h-20.02557a4.95129 4.95129 0 0 0 1.02557-3v-52a1.0013 1.0013 0 0 1 1-1h20a1.0013 1.0013 0 0 1 1 1z" data-original="#000000" class="hovered-path active-path" data-old_color="#000000" fill="#FFF"/><path d="m41 18.62036v7.37964a3.00328 3.00328 0 0 0 3 3h10a3.00328 3.00328 0 0 0 3-3v-7.37964a1.9943 1.9943 0 0 0 0-3.234v-7.38636a2.002 2.002 0 0 0 -2-2h-2a2.002 2.002 0 0 0 -2 2v3.17963l-.853-.59711a2.00307 2.00307 0 0 0 -2.29345-.00049l-6.82764 4.7793a1.99966 1.99966 0 0 0 -.02591 3.25903zm9 8.37964h-2v-4h2zm5-1a1.0013 1.0013 0 0 1 -1 1h-2v-4a2.002 2.002 0 0 0 -2-2h-2a2.002 2.002 0 0 0 -2 2v4h-2a1.0013 1.0013 0 0 1 -1-1v-7h12zm-2-18h2v5.97949l-2-1.4zm-4 4.2207 6.82764 4.7793h-13.65528z" data-original="#000000" class="hovered-path active-path" data-old_color="#000000" fill="#FFF"/><path d="m4 47.35352a3.00139 3.00139 0 0 1 1.54346-2.62252l6.34283-3.52387 4.66547 3.88764a1.98057 1.98057 0 0 0 .44824.27309v1.63214a1.99765 1.99765 0 0 0 .86639 1.64478l-1.85028 10.17651-.01611 3.17871h2v-2.90967l1.83459-10.09033h2.33082l1.83459 10.09033v2.90967h2v-3l-1.86743-10.35437a1.99764 1.99764 0 0 0 .86743-1.64563v-1.63214a1.98133 1.98133 0 0 0 .44873-.27362l4.665-3.88715 2.40045 1.33344.97168-1.748-2.87805-1.59875-1.74158-1.74158a3.00555 3.00555 0 0 0 -2.86623-.78081v-2.77686a12.00652 12.00652 0 0 0 7-10.89453v-18a3.00328 3.00328 0 0 0 -3-3h-13a4.00768 4.00768 0 0 0 -3.87354 3h-.12646a4.00458 4.00458 0 0 0 -4 4v14a12.00652 12.00652 0 0 0 7 10.89453v2.777a3.00469 3.00469 0 0 0 -2.86621.78064l-1.74158 1.74158-6.82043 3.78916a5.00257 5.00257 0 0 0 -2.57178 4.37061v14.64648h2zm19-.35352h-4v-1.83252a1.97769 1.97769 0 0 0 .43115-.40967l1.56885-2.09118 1.56836 2.09069a1.97935 1.97935 0 0 0 .43164.41016zm-5-9.20172v-3.19328a11.591 11.591 0 0 0 6 0v3.19324l-3 1.99986zm8.19043.94342a1.00535 1.00535 0 0 1 1.26172.12451l1.0664 1.06641-4.35009 3.625-1.73389-2.312zm-15.19043-29.7417a2.002 2.002 0 0 1 2-2v1h2v-2a2.002 2.002 0 0 1 2-2h13a1.0013 1.0013 0 0 1 1 1v6.13135l-.70947-.47315a3.00937 3.00937 0 0 0 -2.3916-.41406l-6.65674 1.66455a.99164.99164 0 0 1 -.48438 0l-6.65771-1.66455a3.00675 3.00675 0 0 0 -2.39112.41455l-.70898.47266zm0 14v-9.46478l1.81787-1.212a.99651.99651 0 0 1 .79785-.13867l6.65674 1.66455a3.00654 3.00654 0 0 0 1.45508 0l6.65576-1.66455a1.01 1.01 0 0 1 .79834.13818l1.81836 1.21243v9.46484a10 10 0 0 1 -20 0zm3.54785 15.86621a1.00351 1.00351 0 0 1 1.26172-.12451l3.75635 2.50391-1.73438 2.3125-4.35009-3.62549z" data-original="#000000" class="hovered-path active-path" data-old_color="#000000" fill="#FFF"/><path d="m44 33h-2a2.002 2.002 0 0 0 -2 2v2a2.002 2.002 0 0 0 2 2h2a2.002 2.002 0 0 0 2-2v-2a2.002 2.002 0 0 0 -2-2zm-2 4v-2h2l.00146 2z" data-original="#000000" class="hovered-path active-path" data-old_color="#000000" fill="#FFF"/><path d="m48 33h2v2h-2z" data-original="#000000" class="hovered-path active-path" data-old_color="#000000" fill="#FFF"/><path d="m52 33h6v2h-6z" data-original="#000000" class="hovered-path active-path" data-old_color="#000000" fill="#FFF"/><path d="m48 37h2v2h-2z" data-original="#000000" class="hovered-path active-path" data-old_color="#000000" fill="#FFF"/><path d="m52 37h6v2h-6z" data-original="#000000" class="hovered-path active-path" data-old_color="#000000" fill="#FFF"/><path d="m56 49h-2a2.002 2.002 0 0 0 -2 2v2a2.002 2.002 0 0 0 2 2h2a2.002 2.002 0 0 0 2-2v-2a2.002 2.002 0 0 0 -2-2zm0 4h-2v-2h2z" data-original="#000000" class="hovered-path active-path" data-old_color="#000000" fill="#FFF"/><path d="m48 49h2v2h-2z" data-original="#000000" class="hovered-path active-path" data-old_color="#000000" fill="#FFF"/><path d="m41 49h5v2h-5z" data-original="#000000" class="hovered-path active-path" data-old_color="#000000" fill="#FFF"/><path d="m48 53h2v2h-2z" data-original="#000000" class="hovered-path active-path" data-old_color="#000000" fill="#FFF"/><path d="m41 53h5v2h-5z" data-original="#000000" class="hovered-path active-path" data-old_color="#000000" fill="#FFF"/><path d="m48 41h2v2h-2z" data-original="#000000" class="hovered-path active-path" data-old_color="#000000" fill="#FFF"/><path d="m52 41h6v2h-6z" data-original="#000000" class="hovered-path active-path" data-old_color="#000000" fill="#FFF"/><path d="m48 45h2v2h-2z" data-original="#000000" class="hovered-path active-path" data-old_color="#000000" fill="#FFF"/><path d="m52 45h6v2h-6z" data-original="#000000" class="hovered-path active-path" data-old_color="#000000" fill="#FFF"/></g> </svg>
