<?xml version="1.0"?>
<svg xmlns="http://www.w3.org/2000/svg" height="512px" viewBox="-40 0 480 480" width="512px" class=""><g><path d="m344 160h-72v16h80c4.417969 0 8-3.582031 8-8v-120c0-4.417969-3.582031-8-8-8h-88v16h80zm0 0" data-original="#000000" class="active-path" data-old_color="#000000" fill="#FFFFFF"/><path d="m272 192h88v16h-88zm0 0" data-original="#000000" class="active-path" data-old_color="#000000" fill="#FFFFFF"/><path d="m272 224h88v16h-88zm0 0" data-original="#000000" class="active-path" data-old_color="#000000" fill="#FFFFFF"/><path d="m352 256h-80v16h72v16h-72v16h80c4.417969 0 8-3.582031 8-8v-32c0-4.417969-3.582031-8-8-8zm0 0" data-original="#000000" class="active-path" data-old_color="#000000" fill="#FFFFFF"/><path d="m272 320h48v16h-48zm0 0" data-original="#000000" class="active-path" data-old_color="#000000" fill="#FFFFFF"/><path d="m336 320h24v16h-24zm0 0" data-original="#000000" class="active-path" data-old_color="#000000" fill="#FFFFFF"/><path d="m272 352h88v16h-88zm0 0" data-original="#000000" class="active-path" data-old_color="#000000" fill="#FFFFFF"/><path d="m0 80v392c0 4.417969 3.582031 8 8 8h240c4.417969 0 8-3.582031 8-8v-64h136c4.417969 0 8-3.582031 8-8v-392c0-4.417969-3.582031-8-8-8h-240c-.144531 0-.273438.0703125-.414062.078125-.777344.042969-1.539063.199219-2.265626.464844-.207031.074219-.417968.113281-.609374.199219-.191407.089843-.199219.058593-.285157.097656-.726562.371094-1.390625.851562-1.96875 1.425781-.128906.125-.21875.277344-.335937.414063-.507813.550781-.925782 1.175781-1.25 1.847656-.121094.226562-.222656.464844-.3125.703125-.351563.882812-.539063 1.820312-.558594 2.769531v64h-136c-4.417969 0-8 3.582031-8 8zm384-64v376h-128v-312c-.027344-2.5-1.246094-4.835938-3.28125-6.289062l.082031-.109376-76.800781-57.601562zm-224 8 64 48h-64zm-144 64h224v376h-224zm0 0" data-original="#000000" class="active-path" data-old_color="#000000" fill="#FFFFFF"/><path d="m208 112h-160c-4.417969 0-8 3.582031-8 8v152c0 4.417969 3.582031 8 8 8h160c4.417969 0 8-3.582031 8-8v-152c0-4.417969-3.582031-8-8-8zm-8 152h-144v-19.71875l40-26.679688 43.558594 29.039063c2.386718 1.585937 5.4375 1.78125 8 .503906l28.441406-14.199219 24 12zm0-36.945312-20.425781-10.214844c-2.25-1.125-4.898438-1.125-7.148438 0l-27.851562 13.929687-44.132813-29.425781c-2.691406-1.792969-6.191406-1.792969-8.882812 0l-35.558594 23.710938v-97.054688h144zm0 0" data-original="#000000" class="active-path" data-old_color="#000000" fill="#FFFFFF"/><path d="m152 208c17.671875 0 32-14.328125 32-32s-14.328125-32-32-32-32 14.328125-32 32 14.328125 32 32 32zm0-48c8.835938 0 16 7.164062 16 16s-7.164062 16-16 16-16-7.164062-16-16 7.164062-16 16-16zm0 0" data-original="#000000" class="active-path" data-old_color="#000000" fill="#FFFFFF"/><path d="m120 392h96v16h-96zm0 0" data-original="#000000" class="active-path" data-old_color="#000000" fill="#FFFFFF"/><path d="m40 392h64v16h-64zm0 0" data-original="#000000" class="active-path" data-old_color="#000000" fill="#FFFFFF"/><path d="m48 376h80c4.417969 0 8-3.582031 8-8v-64c0-4.417969-3.582031-8-8-8h-80c-4.417969 0-8 3.582031-8 8v64c0 4.417969 3.582031 8 8 8zm8-64h64v48h-64zm0 0" data-original="#000000" class="active-path" data-old_color="#000000" fill="#FFFFFF"/><path d="m152 296h64v16h-64zm0 0" data-original="#000000" class="active-path" data-old_color="#000000" fill="#FFFFFF"/><path d="m152 328h32v16h-32zm0 0" data-original="#000000" class="active-path" data-old_color="#000000" fill="#FFFFFF"/><path d="m200 328h16v16h-16zm0 0" data-original="#000000" class="active-path" data-old_color="#000000" fill="#FFFFFF"/><path d="m152 360h64v16h-64zm0 0" data-original="#000000" class="active-path" data-old_color="#000000" fill="#FFFFFF"/><path d="m40 424h120v16h-120zm0 0" data-original="#000000" class="active-path" data-old_color="#000000" fill="#FFFFFF"/><path d="m176 424h40v16h-40zm0 0" data-original="#000000" class="active-path" data-old_color="#000000" fill="#FFFFFF"/></g> </svg>
